<svg height="512" viewBox="0 0 512 512" width="512" xmlns="http://www.w3.org/2000/svg" xmlns:xlink="http://www.w3.org/1999/xlink"><linearGradient id="a" gradientUnits="userSpaceOnUse" x1="33.593" x2="541.987" y1="518.407" y2="10.013" data-name="New Gradient Swatch 1"><stop offset="0" stop-color="#003f8a"/><stop offset=".518" stop-color="#00d7df"/><stop offset="1" stop-color="#006df0"/></linearGradient><linearGradient id="b" x1="61.593" x2="569.987" xlink:href="#a" y1="546.407" y2="38.013"/><g><path d="m472 144h-112v-52a28.031 28.031 0 0 0 -28-28h-152a28.031 28.031 0 0 0 -28 28v52h-112a32.036 32.036 0 0 0 -32 32v240a32.036 32.036 0 0 0 32 32h432a32.036 32.036 0 0 0 32-32v-240a32.036 32.036 0 0 0 -32-32zm-304-52a12.01 12.01 0 0 1 12-12h152a12.01 12.01 0 0 1 12 12v52h-16v-40a8 8 0 0 0 -8-8h-128a8 8 0 0 0 -8 8v40h-16zm144 20v32h-112v-32zm176 304a16.021 16.021 0 0 1 -16 16h-432a16.021 16.021 0 0 1 -16-16v-160h176v8a8 8 0 0 0 8 8h96a8 8 0 0 0 8-8v-8h176zm-272-160v-16h80v16zm272-16h-176v-8a8 8 0 0 0 -8-8h-96a8 8 0 0 0 -8 8v8h-176v-64a16.021 16.021 0 0 1 16-16h432a16.021 16.021 0 0 1 16 16z" fill="url(#a)"/><path d="m288 328h-8v-8a8 8 0 0 0 -8-8h-32a8 8 0 0 0 -8 8v8h-8a8 8 0 0 0 -8 8v32a8 8 0 0 0 8 8h8v8a8 8 0 0 0 8 8h32a8 8 0 0 0 8-8v-8h8a8 8 0 0 0 8-8v-32a8 8 0 0 0 -8-8zm-8 32h-8a8 8 0 0 0 -8 8v8h-16v-8a8 8 0 0 0 -8-8h-8v-16h8a8 8 0 0 0 8-8v-8h16v8a8 8 0 0 0 8 8h8z" fill="url(#b)"/></g></svg>