<svg height="256" viewBox="0 0 512 512" width="256" xmlns="http://www.w3.org/2000/svg"><path d="m512 256c0 141.386719-114.613281 256-256 256s-256-114.613281-256-256 114.613281-256 256-256 256 114.613281 256 256zm0 0" fill="#2864f0"/><path d="m512 256c0-8.378906-.414062-16.660156-1.203125-24.835938l-139.578125-139.574218-8.003906 12.054687-37.890625-37.890625-206.324219 340.578125 103.480469 103.484375c10.972656 1.433594 22.15625 2.183594 33.519531 2.183594 141.386719 0 256-114.613281 256-256zm0 0" fill="#2332b7"/><path d="m119 105.667969h247.332031v300.667969h-247.332031zm0 0" fill="#00cfff"/><path d="m235.953125 105.667969h130.378906v300.667969h-130.378906zm0 0" fill="#0aaeef"/><path d="m169.332031 157.667969h97v15.898437h-97zm0 0" fill="#e0e0e0"/><path d="m235.953125 157.667969h30.378906v15.898437h-30.378906zm0 0" fill="#c0c0c0"/><path d="m169.332031 326h97v15.902344h-97zm0 0" fill="#e0e0e0"/><path d="m235.953125 326h30.378906v15.902344h-30.378906zm0 0" fill="#c0c0c0"/><path d="m169.332031 241.832031h133.332031v15.902344h-133.332031zm0 0" fill="#e0e0e0"/><path d="m235.953125 241.832031h66.710937v15.902344h-66.710937zm0 0" fill="#c0c0c0"/><path d="m169.332031 199.75h147.332031v15.902344h-147.332031zm0 0" fill="#e0e0e0"/><path d="m235.953125 199.75h80.710937v15.902344h-80.710937zm0 0" fill="#c0c0c0"/><path d="m169.332031 283.917969h147.332031v15.898437h-147.332031zm0 0" fill="#e0e0e0"/><path d="m235.953125 283.917969h80.710937v15.898437h-80.710937zm0 0" fill="#c0c0c0"/><path d="m318.574219 146.425781h-4.570313c-27.761718 0-50.265625-22.507812-50.265625-50.269531v-4.570312h4.570313c27.761718 0 50.265625 22.507812 50.265625 50.269531zm0 0" fill="#fff"/><path d="m316.382812 146.425781h4.566407c27.765625 0 50.269531-22.507812 50.269531-50.269531v-4.570312h-4.570312c-27.761719 0-50.265626 22.507812-50.265626 50.269531zm0 0" fill="#e0e0e0"/><path d="m317.476562 157.78125-4.171874-4.175781c-25.363282-25.359375-25.363282-66.480469 0-91.84375l4.171874-4.171875 4.175782 4.171875c25.363281 25.363281 25.363281 66.484375 0 91.84375zm0 0" fill="#e0e0e0"/><path d="m317.476562 157.78125 4.175782-4.175781c25.363281-25.359375 25.363281-66.480469 0-91.84375l-4.175782-4.171875zm0 0" fill="#c0c0c0"/><path d="m310.621094 285.089844-19.929688-113.359375c-2.523437-14.347657 8.515625-27.5 23.085938-27.5h7.402344c14.570312 0 25.609374 13.152343 23.085937 27.5l-19.929687 113.359375c-1.347657 7.675781-12.367188 7.675781-13.714844 0zm0 0" fill="#f8a725"/><path d="m317.09375 290.820312c3.214844.167969 6.539062-1.730468 7.242188-5.730468l19.929687-113.359375c2.523437-14.347657-8.515625-27.5-23.085937-27.5h-3.679688zm0 0" fill="#f47f17"/></svg>